<?xml version="1.0" standalone="no"?>
<!DOCTYPE svg PUBLIC "-//W3C//DTD SVG 20010904//EN"
 "http://www.w3.org/TR/2001/REC-SVG-20010904/DTD/svg10.dtd">
<svg version="1.0" xmlns="http://www.w3.org/2000/svg"
 width="300.000000pt" height="300.000000pt" viewBox="0 0 300.000000 300.000000"
 preserveAspectRatio="xMidYMid meet">
<metadata>
Created by potrace 1.11, written by Peter Selinger 2001-2013
</metadata>
<g transform="translate(0.000000,300.000000) scale(0.100000,-0.100000)"
fill="#000000" stroke="none">
<path d="M1438 2877 c-88 -87 -215 -251 -277 -357 -68 -117 -141 -280 -162
-362 -5 -21 -14 -57 -20 -80 -15 -61 -18 -76 -26 -143 -9 -72 -9 -269 -1 -346
28 -241 149 -523 331 -768 23 -31 42 -60 42 -66 2 -20 -56 -232 -82 -300 -28
-74 -86 -193 -128 -261 -25 -41 -25 -42 -7 -64 37 -46 68 -19 150 130 54 98
131 331 156 474 3 17 12 34 21 38 37 21 165 131 220 190 139 148 220 272 283
433 45 117 56 159 68 280 28 279 -40 553 -217 865 -29 51 -185 279 -199 290
-3 3 -23 26 -44 53 -21 26 -42 47 -47 47 -4 0 -32 -24 -61 -53z"/>
</g>
</svg>
